HIERARCHY
ROOT Hips
{
  OFFSET 1.27532 93.8861 21.0707
  CHANNELS 6 Xposition Yposition Zposition Zrotation Xrotation Yrotation
  JOINT Spine
  {
    OFFSET 0 9.9235 -1.2273
    CHANNELS 6 Xposition Yposition Zposition Zrotation Xrotation Yrotation
    JOINT Spine1
    {
      OFFSET -0.0001 11.6454 -1.4223
      CHANNELS 6 Xposition Yposition Zposition Zrotation Xrotation Yrotation
      JOINT Spine2
      {
        OFFSET 0.0001 13.3602 -1.6265
        CHANNELS 6 Xposition Yposition Zposition Zrotation Xrotation Yrotation
        JOINT Neck
        {
          OFFSET 0 15.0325 0.7929
          CHANNELS 6 Xposition Yposition Zposition Zrotation Xrotation Yrotation
          JOINT Head
          {
            OFFSET 0 10.3218 3.1424
            CHANNELS 6 Xposition Yposition Zposition Zrotation Xrotation Yrotation
            JOINT HeadTop_End
            {
              OFFSET 0.0002 18.4747 6.6364
              CHANNELS 6 Xposition Yposition Zposition Zrotation Xrotation Yrotation
              End Site
              {
                OFFSET 0 0 0
              }
            }
            JOINT LeftEye
            {
              OFFSET 2.9479 7.6817 9.1207
              CHANNELS 6 Xposition Yposition Zposition Zrotation Xrotation Yrotation
              End Site
              {
                OFFSET 0 0 0
              }
            }
            JOINT RightEye
            {
              OFFSET -2.9445 7.6817 9.1205
              CHANNELS 6 Xposition Yposition Zposition Zrotation Xrotation Yrotation
              End Site
              {
                OFFSET 0 0 0
              }
            }
          }
        }
        JOINT LeftShoulder
        {
          OFFSET 6.1058 9.1104 0.7056
          CHANNELS 6 Xposition Yposition Zposition Zrotation Xrotation Yrotation
          JOINT LeftArm
          {
            OFFSET 12.655 -0.2659 -2.6009
            CHANNELS 6 Xposition Yposition Zposition Zrotation Xrotation Yrotation
            JOINT LeftForeArm
            {
              OFFSET 27.4047 0 0
              CHANNELS 6 Xposition Yposition Zposition Zrotation Xrotation Yrotation
              JOINT LeftHand
              {
                OFFSET 27.6145 0 0
                CHANNELS 6 Xposition Yposition Zposition Zrotation Xrotation Yrotation
                JOINT LeftHandMiddle1
                {
                  OFFSET 12.7755 0 0
                  CHANNELS 6 Xposition Yposition Zposition Zrotation Xrotation Yrotation
                  JOINT LeftHandMiddle2
                  {
                    OFFSET 3.614 0 0
                    CHANNELS 6 Xposition Yposition Zposition Zrotation Xrotation Yrotation
                    JOINT LeftHandMiddle3
                    {
                      OFFSET 3.4598 0 0
                      CHANNELS 6 Xposition Yposition Zposition Zrotation Xrotation Yrotation
                      End Site
                      {
                        OFFSET 3.6802 0 0
                      }
                    }
                  }
                }
                JOINT LeftHandThumb1
                {
                  OFFSET 3.7888 -2.167 3.0031
                  CHANNELS 6 Xposition Yposition Zposition Zrotation Xrotation Yrotation
                  JOINT LeftHandThumb2
                  {
                    OFFSET 3.6754 -2.122 2.122
                    CHANNELS 6 Xposition Yposition Zposition Zrotation Xrotation Yrotation
                    JOINT LeftHandThumb3
                    {
                      OFFSET 3.3944 -1.9597 1.9598
                      CHANNELS 6 Xposition Yposition Zposition Zrotation Xrotation Yrotation
                      End Site
                      {
                        OFFSET 2.6794 -1.5469 1.5469
                      }
                    }
                  }
                }
                JOINT LeftHandIndex1
                {
                  OFFSET 12.2666 -0.2317 2.8221
                  CHANNELS 6 Xposition Yposition Zposition Zrotation Xrotation Yrotation
                  JOINT LeftHandIndex2
                  {
                    OFFSET 3.892 0 0
                    CHANNELS 6 Xposition Yposition Zposition Zrotation Xrotation Yrotation
                    JOINT LeftHandIndex3
                    {
                      OFFSET 3.4152 0 0
                      CHANNELS 6 Xposition Yposition Zposition Zrotation Xrotation Yrotation
                      End Site
                      {
                        OFFSET 3.078 0 0
                      }
                    }
                  }
                }
                JOINT LeftHandRing1
                {
                  OFFSET 12.147 0.0099 -2.2166
                  CHANNELS 6 Xposition Yposition Zposition Zrotation Xrotation Yrotation
                  JOINT LeftHandRing2
                  {
                    OFFSET 3.6012 0 0
                    CHANNELS 6 Xposition Yposition Zposition Zrotation Xrotation Yrotation
                    JOINT LeftHandRing3
                    {
                      OFFSET 3.3073 0 0
                      CHANNELS 6 Xposition Yposition Zposition Zrotation Xrotation Yrotation
                      End Site
                      {
                        OFFSET 3.6601 0 0
                      }
                    }
                  }
                }
                JOINT LeftHandPinky1
                {
                  OFFSET 10.9082 -0.2264 -4.7258
                  CHANNELS 6 Xposition Yposition Zposition Zrotation Xrotation Yrotation
                  JOINT LeftHandPinky2
                  {
                    OFFSET 4.1367 0 0
                    CHANNELS 6 Xposition Yposition Zposition Zrotation Xrotation Yrotation
                    JOINT LeftHandPinky3
                    {
                      OFFSET 2.5948 0 0
                      CHANNELS 6 Xposition Yposition Zposition Zrotation Xrotation Yrotation
                      End Site
                      {
                        OFFSET 2.9239 0 0
                      }
                    }
                  }
                }
              }
            }
          }
        }
        JOINT RightShoulder
        {
          OFFSET -6.1057 9.1105 0.7056
          CHANNELS 6 Xposition Yposition Zposition Zrotation Xrotation Yrotation
          JOINT RightArm
          {
            OFFSET -12.655 -0.266 -2.6009
            CHANNELS 6 Xposition Yposition Zposition Zrotation Xrotation Yrotation
            JOINT RightForeArm
            {
              OFFSET -27.4047 0 0
              CHANNELS 6 Xposition Yposition Zposition Zrotation Xrotation Yrotation
              JOINT RightHand
              {
                OFFSET -27.6145 0 0
                CHANNELS 6 Xposition Yposition Zposition Zrotation Xrotation Yrotation
                JOINT RightHandMiddle1
                {
                  OFFSET -12.7755 0 0
                  CHANNELS 6 Xposition Yposition Zposition Zrotation Xrotation Yrotation
                  JOINT RightHandMiddle2
                  {
                    OFFSET -3.614 0 0
                    CHANNELS 6 Xposition Yposition Zposition Zrotation Xrotation Yrotation
                    JOINT RightHandMiddle3
                    {
                      OFFSET -3.4598 0 0
                      CHANNELS 6 Xposition Yposition Zposition Zrotation Xrotation Yrotation
                      End Site
                      {
                        OFFSET -3.6802 0 0
                      }
                    }
                  }
                }
                JOINT RightHandThumb1
                {
                  OFFSET -3.7888 -2.167 3.0031
                  CHANNELS 6 Xposition Yposition Zposition Zrotation Xrotation Yrotation
                  JOINT RightHandThumb2
                  {
                    OFFSET -3.6754 -2.122 2.122
                    CHANNELS 6 Xposition Yposition Zposition Zrotation Xrotation Yrotation
                    JOINT RightHandThumb3
                    {
                      OFFSET -3.3944 -1.9597 1.9598
                      CHANNELS 6 Xposition Yposition Zposition Zrotation Xrotation Yrotation
                      End Site
                      {
                        OFFSET -2.6794 -1.5469 1.5469
                      }
                    }
                  }
                }
                JOINT RightHandIndex1
                {
                  OFFSET -12.2666 -0.2317 2.8221
                  CHANNELS 6 Xposition Yposition Zposition Zrotation Xrotation Yrotation
                  JOINT RightHandIndex2
                  {
                    OFFSET -3.892 0 0
                    CHANNELS 6 Xposition Yposition Zposition Zrotation Xrotation Yrotation
                    JOINT RightHandIndex3
                    {
                      OFFSET -3.4152 0 0
                      CHANNELS 6 Xposition Yposition Zposition Zrotation Xrotation Yrotation
                      End Site
                      {
                        OFFSET -3.078 0 0
                      }
                    }
                  }
                }
                JOINT RightHandRing1
                {
                  OFFSET -12.147 0.0099 -2.2166
                  CHANNELS 6 Xposition Yposition Zposition Zrotation Xrotation Yrotation
                  JOINT RightHandRing2
                  {
                    OFFSET -3.6012 0 0
                    CHANNELS 6 Xposition Yposition Zposition Zrotation Xrotation Yrotation
                    JOINT RightHandRing3
                    {
                      OFFSET -3.3073 0 0
                      CHANNELS 6 Xposition Yposition Zposition Zrotation Xrotation Yrotation
                      End Site
                      {
                        OFFSET -3.6601 0 0
                      }
                    }
                  }
                }
                JOINT RightHandPinky1
                {
                  OFFSET -10.9082 -0.2264 -4.7258
                  CHANNELS 6 Xposition Yposition Zposition Zrotation Xrotation Yrotation
                  JOINT RightHandPinky2
                  {
                    OFFSET -4.1367 0 0
                    CHANNELS 6 Xposition Yposition Zposition Zrotation Xrotation Yrotation
                    JOINT RightHandPinky3
                    {
                      OFFSET -2.5948 0 0
                      CHANNELS 6 Xposition Yposition Zposition Zrotation Xrotation Yrotation
                      End Site
                      {
                        OFFSET -2.9239 0 0
                      }
                    }
                  }
                }
              }
            }
          }
        }
      }
    }
  }
  JOINT RightUpLeg
  {
    OFFSET -9.1245 -6.6564 -0.0554
    CHANNELS 6 Xposition Yposition Zposition Zrotation Xrotation Yrotation
    JOINT RightLeg
    {
      OFFSET -0.2447 -40.5954 -0.5145
      CHANNELS 6 Xposition Yposition Zposition Zrotation Xrotation Yrotation
      JOINT RightFoot
      {
        OFFSET 0.2447 -42.0479 -2.0602
        CHANNELS 6 Xposition Yposition Zposition Zrotation Xrotation Yrotation
        JOINT RightToeBase
        {
          OFFSET -0.3734 -10.4922 12.6407
          CHANNELS 6 Xposition Yposition Zposition Zrotation Xrotation Yrotation
          End Site
          {
            OFFSET 0 0 9.9925
          }
        }
      }
    }
  }
  JOINT LeftUpLeg
  {
    OFFSET 9.1245 -6.6564 -0.0554
    CHANNELS 6 Xposition Yposition Zposition Zrotation Xrotation Yrotation
    JOINT LeftLeg
    {
      OFFSET 0.2447 -40.5954 -0.517
      CHANNELS 6 Xposition Yposition Zposition Zrotation Xrotation Yrotation
      JOINT LeftFoot
      {
        OFFSET -0.2447 -42.048 -2.0576
        CHANNELS 6 Xposition Yposition Zposition Zrotation Xrotation Yrotation
        JOINT LeftToeBase
        {
          OFFSET 0.3734 -10.4922 12.6407
          CHANNELS 6 Xposition Yposition Zposition Zrotation Xrotation Yrotation
          End Site
          {
            OFFSET 0 0 9.9925
          }
        }
      }
    }
  }
}
MOTION
Frames:	4
Frame Time:	0.0166667
3.43878 85.6057 72.7753 -0.8512 11.2428 -30.0244 7.10543e-015 9.9235 -1.2273 -1.58783 10.9945 8.44678 -0.0001 11.6454 -1.4223 -2.4022 4.08928 1.27558 0.0001 13.3602 -1.6265 -2.37266 4.22595 1.242 1.77636e-015 15.0325 0.7929 -6.18222 7.2549 3.82269 0 10.3218 3.1424 8.31837 -1.26752 6.49863 0.0002 18.4747 6.6364 3.18055e-015 0 -0 2.9479 7.6817 9.1207 3.18055e-015 0 -0 -2.9445 7.6817 9.1205 3.18055e-015 0 -0 6.1058 9.1104 0.7056 -6.43384 2.15984 -6.19068 12.655 -0.2659 -2.6009 -54.6047 -6.89248 -10.2944 27.4047 0 -7.10543e-015 2.00423e-005 -9.77793e-007 -49.5893 27.6145 0 1.42109e-014 -6.92774 13.0573 -1.7868 12.7755 1.42109e-014 0 -1.05329 0.133485 -9.84884 3.614 0 -7.10543e-015 -23.7036 -0.583413 2.77954 3.4598 0 -1.42109e-014 -12.8672 -0.173571 1.5393 3.7888 -2.167 3.0031 8.69625 1.45675 17.2143 3.6754 -2.122 2.122 -0.789446 1.50761 2.74442 3.3944 -1.9597 1.9598 2.94632 -2.09463 -0.87954 12.2666 -0.2317 2.8221 1.53769 0.152144 -11.0101 3.892 0 0 -21.6448 -0.487561 2.55014 3.4152 0 0 -9.1712 -0.0883561 1.10165 12.147 0.0099 -2.2166 -3.94566 0.110461 -8.91443 3.6012 1.42109e-014 0 -27.4083 -0.77641 3.18319 3.3073 1.42109e-014 0 -16.5189 -0.285342 1.96553 10.9082 -0.2264 -4.7258 -5.5759 0.0302297 -4.46017 4.1367 1.42109e-014 0 -31.8761 1.11522 0.147957 2.5948 1.42109e-014 0 -18.4464 -0.355237 2.18741 -6.1057 9.1105 0.7056 -8.76444 -5.93396 12.0268 -12.655 -0.266 -2.6009 56.8814 39.6401 13.8721 -27.4047 -1.42109e-014 -1.42109e-014 4.01743e-006 -1.09343e-005 68.6902 -27.6145 0 1.42109e-014 15.2553 20.1889 0.116605 -12.7755 0 0 57.5533 -3.28408 -6.877 -3.614 7.10543e-015 0 81.7921 -5.99946 -6.92483 -3.4598 -1.42109e-014 7.10543e-015 76.8301 -5.4304 -6.81862 -3.7888 -2.167 3.0031 -5.46848 7.60521 -15.1922 -3.6754 -2.122 2.122 13.7419 19.4388 -8.05092 -3.3944 -1.9597 1.9598 -11.0074 2.22906 -39.0408 -12.2666 -0.2317 2.8221 55.2992 -3.00585 -6.64809 -3.892 -7.10543e-015 0 84.673 -6.34846 -6.96649 -3.4152 1.42109e-014 -7.10543e-015 77.7311 -5.51169 -6.83628 -12.147 0.0099 -2.2166 60.7265 -3.74729 -7.22441 -3.6012 -7.10543e-015 0 77.3141 -5.46197 -6.82523 -3.3073 1.42109e-014 -5.32907e-015 75.8546 -5.31501 -6.79211 -10.9082 -0.2264 -4.7258 63.5959 -4.23124 -7.53528 -4.1367 7.10543e-015 -3.55271e-015 73.4735 -5.00806 -6.70645 -2.5948 0 3.55271e-015 75.198 -5.2109 -6.76355 -9.1245 -6.6564 -0.0554 -11.6913 -5.58673 -17.6478 -0.2447 -40.5954 -0.5145 -14.4432 33.3317 -0.810291 0.2447 -42.0479 -2.0602 -2.55071 -4.71123 -31.2633 -0.3734 -10.4922 12.6407 -1.27884e-006 -6.0459 -1.04259e-005 9.1245 -6.6564 -0.0554 9.74518 -54.2538 8.01315 0.2447 -40.5954 -0.517 5.04618 65.9361 3.14528 -0.2447 -42.048 -2.0576 -2.46659 -20.8697 14.2995 0.3734 -10.4922 12.6407 4.58577e-007 -3.25601 2.85068e-007 
3.38425 85.9533 73.7924 -0.947408 11.268 -29.774 -3.55271e-015 9.9235 -1.2273 -1.68576 10.7977 8.49654 -0.0001 11.6454 -1.4223 -2.40675 4.04942 1.27829 0.0001 13.3602 -1.6265 -2.37669 4.18608 1.24544 0 15.0325 0.7929 -6.30526 7.17443 3.83747 0 10.3218 3.1424 8.50807 -1.4101 6.36362 0.0002 18.4747 6.6364 -2.38542e-015 3.18055e-015 1.59028e-015 2.9479 7.6817 9.1207 -2.38542e-015 3.18055e-015 1.59028e-015 -2.9445 7.6817 9.1205 -2.38542e-015 3.18055e-015 1.59028e-015 6.1058 9.1104 0.7056 -6.60042 2.10973 -5.98617 12.655 -0.2659 -2.6009 -54.6748 -6.36049 -10.1537 27.4047 -1.42109e-014 7.10543e-015 5.20693e-006 -4.12537e-006 -50.4493 27.6145 0 0 -6.52218 13.3565 -2.11823 12.7755 0 7.10543e-015 -1.31774 0.127761 -9.72249 3.614 -1.42109e-014 7.10543e-015 -23.5675 -0.576822 2.76448 3.4598 1.42109e-014 0 -13.0686 -0.17903 1.56299 3.7888 -2.167 3.0031 8.66774 1.46953 17.2168 3.6754 -2.122 2.122 -0.789446 1.50761 2.74442 3.3944 -1.9597 1.9598 2.94436 -2.08683 -0.867284 12.2666 -0.2317 2.8221 1.22051 0.149232 -10.8633 3.892 0 0 -21.4049 -0.476952 2.5232 3.4152 1.42109e-014 0 -9.37203 -0.0922636 1.12555 12.147 0.0099 -2.2166 -4.15209 0.102791 -8.80792 3.6012 0 7.10543e-015 -27.3606 -0.773764 3.17804 3.3073 1.42109e-014 0 -16.7714 -0.294063 1.99473 10.9082 -0.2264 -4.7258 -5.73785 0.0225199 -4.36662 4.1367 -1.42109e-014 -1.42109e-014 -31.903 1.11513 0.151733 2.5948 0 -1.42109e-014 -18.7265 -0.366023 2.21947 -6.1057 9.1105 0.7056 -8.88366 -5.98155 12.0335 -12.655 -0.266 -2.6009 57.2357 40.2907 13.6049 -27.4047 1.42109e-014 0 -2.26053e-006 3.25613e-006 68.9294 -27.6145 0 1.42109e-014 15.2174 20.1443 -0.120489 -12.7755 0 0 57.6621 -3.29669 -6.8923 -3.614 -7.10543e-015 -3.55271e-015 81.7987 -6.00027 -6.92496 -3.4598 0 1.77636e-015 76.8298 -5.42769 -6.8186 -3.7888 -2.167 3.0031 -5.46676 7.62621 -15.2525 -3.6754 -2.122 2.122 13.7419 19.4388 -8.05092 -3.3944 -1.9597 1.9598 -11.0063 2.22447 -39.0355 -12.2666 -0.2317 2.8221 55.3238 -3.00864 -6.67108 -3.892 -1.42109e-014 3.55271e-015 84.673 -6.34846 -6.96649 -3.4152 0 0 77.7328 -5.5119 -6.83633 -12.147 0.0099 -2.2166 60.9415 -3.77473 -7.22996 -3.6012 1.42109e-014 0 77.3268 -5.46347 -6.82557 -3.3073 0 0 75.8525 -5.31158 -6.7921 -10.9082 -0.2264 -4.7258 63.9067 -4.27433 -7.53164 -4.1367 0 -3.55271e-015 73.4735 -5.00806 -6.70645 -2.5948 1.42109e-014 -1.77636e-015 75.1982 -5.21091 -6.76357 -9.1245 -6.6564 -0.0554 -11.185 -5.74494 -17.5349 -0.2447 -40.5954 -0.5145 -14.4212 33.1163 -0.976963 0.2447 -42.0479 -2.0602 -2.64297 -4.78701 -31.2527 -0.3734 -10.4922 12.6407 6.97561e-006 -6.01468 -3.65189e-006 9.1245 -6.6564 -0.0554 9.30462 -53.2236 7.86452 0.2447 -40.5954 -0.517 4.74891 65.4525 3.41848 -0.2447 -42.048 -2.0576 -2.15508 -21.4857 14.1215 0.3734 -10.4922 12.6407 -1.61635e-006 -3.37977 1.25286e-006 
3.32141 86.3101 74.8243 -1.01969 11.2584 -29.4799 0 9.9235 -1.2273 -1.79683 10.5649 8.53019 -0.0001 11.6454 -1.4223 -2.40775 4.02354 1.27858 0.0001 13.3602 -1.6265 -2.37689 4.16017 1.24679 0 15.0325 0.7929 -6.40471 7.11282 3.84954 -1.77636e-015 10.3218 3.1424 8.70684 -1.52813 6.23954 0.0002 18.4747 6.6364 -1.59028e-015 6.36111e-015 -0 2.9479 7.6817 9.1207 -1.59028e-015 6.36111e-015 -0 -2.9445 7.6817 9.1205 -1.59028e-015 6.36111e-015 -0 6.1058 9.1104 0.7056 -6.71421 2.05756 -5.82319 12.655 -0.2659 -2.6009 -54.8169 -5.8689 -9.92083 27.4047 0 0 -6.54518e-006 -2.3167e-006 -51.1801 27.6145 0 0 -6.15368 13.1469 -2.36517 12.7755 -1.42109e-014 0 -1.4946 0.118034 -9.59325 3.614 1.42109e-014 0 -23.2849 -0.563232 2.73316 3.4598 1.42109e-014 -1.42109e-014 -13.2081 -0.18287 1.57939 3.7888 -2.167 3.0031 8.6223 1.50778 17.2577 3.6754 -2.122 2.122 -0.789446 1.50761 2.74442 3.3944 -1.9597 1.9598 2.9335 -2.0418 -0.797106 12.2666 -0.2317 2.8221 0.957942 0.138431 -10.722 3.892 0 0 -21.0046 -0.459459 2.47814 3.4152 -1.42109e-014 0 -9.51606 -0.0951118 1.14271 12.147 0.0099 -2.2166 -4.22703 0.0945684 -8.68837 3.6012 0 0 -27.184 -0.763989 3.1591 3.3073 -1.42109e-014 -7.10543e-015 -16.9616 -0.300745 2.01669 10.9082 -0.2264 -4.7258 -5.72583 0.0166843 -4.25127 4.1367 0 7.10543e-015 -31.8221 1.11535 0.140395 2.5948 1.42109e-014 7.10543e-015 -18.948 -0.37465 2.24479 -6.1057 9.1105 0.7056 -9.01256 -6.02659 12.0211 -12.655 -0.266 -2.6009 57.628 40.8897 13.3118 -27.4047 1.42109e-014 2.13163e-014 -8.54704e-006 -1.87297e-005 69.1811 -27.6145 0 0 15.1657 20.0158 -0.356963 -12.7755 0 0 57.6328 -3.29433 -6.86091 -3.614 7.10543e-015 0 81.7968 -6.00004 -6.92491 -3.4598 0 -5.32907e-015 76.8237 -5.43114 -6.81882 -3.7888 -2.167 3.0031 -5.47382 7.65537 -15.3435 -3.6754 -2.122 2.122 13.7419 19.4388 -8.05092 -3.3944 -1.9597 1.9598 -11.0026 2.21398 -39.0241 -12.2666 -0.2317 2.8221 55.1931 -2.99812 -6.59875 -3.892 7.10543e-015 0 84.673 -6.34846 -6.96649 -3.4152 0 3.55271e-015 77.7201 -5.51038 -6.836 -12.147 0.0099 -2.2166 61.0329 -3.78686 -7.24519 -3.6012 0 3.55271e-015 77.3323 -5.46415 -6.82573 -3.3073 0 1.77636e-015 75.8528 -5.31599 -6.7926 -10.9082 -0.2264 -4.7258 64.101 -4.30331 -7.58459 -4.1367 0 -7.10543e-015 73.4735 -5.00806 -6.70645 -2.5948 0 2.66454e-015 75.2069 -5.21197 -6.76385 -9.1245 -6.6564 -0.0554 -10.828 -5.82533 -17.7554 -0.2447 -40.5954 -0.5145 -14.3914 32.8242 -1.1341 0.2447 -42.0479 -2.0602 -2.51799 -4.7416 -31.2064 -0.3734 -10.4922 12.6407 -9.85587e-006 -5.91811 1.69766e-005 9.1245 -6.6564 -0.0554 8.8369 -52.1344 7.71888 0.2447 -40.5954 -0.517 4.36966 64.8921 3.78077 -0.2447 -42.048 -2.0576 -1.82871 -22.0698 13.8893 0.3734 -10.4922 12.6407 -1.43278e-006 -3.5631 -7.80755e-007 
3.2518 86.6595 75.8572 -1.08976 11.1805 -29.1405 0 9.9235 -1.2273 -1.90951 10.3025 8.57424 -0.0001 11.6454 -1.4223 -2.41439 4.00742 1.28039 0.0001 13.3602 -1.6265 -2.38239 4.14405 1.24981 -1.77636e-015 15.0325 0.7929 -6.49224 7.05823 3.85573 0 10.3218 3.1424 8.91526 -1.63285 6.09737 0.0002 18.4747 6.6364 -7.95139e-016 -3.18055e-015 -0 2.9479 7.6817 9.1207 -7.95139e-016 -3.18055e-015 -0 -2.9445 7.6817 9.1205 -7.95139e-016 -3.18055e-015 -0 6.1058 9.1104 0.7056 -6.79609 2.00865 -5.68686 12.655 -0.2659 -2.6009 -54.9896 -5.42264 -9.63876 27.4047 0 -7.10543e-015 4.90847e-006 -1.36603e-006 -51.8469 27.6145 0 0 -5.93583 12.663 -2.44015 12.7755 -1.42109e-014 0 -1.62663 0.10476 -9.42685 3.614 1.42109e-014 1.42109e-014 -22.7967 -0.540194 2.67889 3.4598 0 0 -13.2453 -0.183891 1.58377 3.7888 -2.167 3.0031 8.58232 1.56061 17.3332 3.6754 -2.122 2.122 -0.789446 1.50761 2.74442 3.3944 -1.9597 1.9598 2.91919 -1.98158 -0.703586 12.2666 -0.2317 2.8221 0.708199 0.122118 -10.5509 3.892 -1.42109e-014 -1.42109e-014 -20.3663 -0.432237 2.40605 3.4152 0 0 -9.57328 -0.0962523 1.14952 12.147 0.0099 -2.2166 -4.21623 0.0840944 -8.52132 3.6012 0 0 -26.8379 -0.744992 3.12184 3.3073 0 -1.42109e-014 -17.0387 -0.303472 2.02559 10.9082 -0.2264 -4.7258 -5.58898 0.00969334 -4.07829 4.1367 0 -1.42109e-014 -31.6034 1.11583 0.109767 2.5948 0 7.10543e-015 -19.0539 -0.378821 2.25687 -6.1057 9.1105 0.7056 -9.15631 -6.06859 11.97 -12.655 -0.266 -2.6009 58.1137 41.4407 12.9157 -27.4047 0 -1.42109e-014 7.07903e-006 -7.21498e-006 69.4449 -27.6145 1.42109e-014 1.42109e-014 15.0632 19.8395 -0.527183 -12.7755 0 0 57.5668 -3.28823 -6.83457 -3.614 -7.10543e-015 0 81.7928 -5.99956 -6.92486 -3.4598 0 3.55271e-015 76.8134 -5.43547 -6.81899 -3.7888 -2.167 3.0031 -5.46551 7.69502 -15.4464 -3.6754 -2.122 2.122 13.7419 19.4388 -8.05092 -3.3944 -1.9597 1.9598 -10.998 2.20162 -39.0108 -12.2666 -0.2317 2.8221 55.0694 -2.9859 -6.52876 -3.892 0 0 84.673 -6.34846 -6.96649 -3.4152 0 -1.77636e-015 77.6966 -5.50758 -6.83539 -12.147 0.0099 -2.2166 61.0333 -3.79191 -7.2695 -3.6012 -7.10543e-015 -3.55271e-015 77.3325 -5.46416 -6.82573 -3.3073 -1.42109e-014 5.32907e-015 75.8568 -5.32199 -6.7933 -10.9082 -0.2264 -4.7258 64.1561 -4.3219 -7.65089 -4.1367 0 -3.55271e-015 73.4735 -5.00806 -6.70645 -2.5948 1.42109e-014 2.66454e-015 75.2244 -5.21403 -6.76438 -9.1245 -6.6564 -0.0554 -10.4897 -5.87087 -17.9204 -0.2447 -40.5954 -0.5145 -14.3578 32.5877 -1.22319 0.2447 -42.0479 -2.0602 -2.48328 -4.79134 -31.1928 -0.3734 -10.4922 12.6407 -6.07992e-006 -5.75954 -7.40801e-006 9.1245 -6.6564 -0.0554 8.28324 -50.9766 7.50409 0.2447 -40.5954 -0.517 3.99273 64.2918 4.14935 -0.2447 -42.048 -2.0576 -1.50223 -22.6315 13.6355 0.3734 -10.4922 12.6407 3.68587e-009 -3.77557 -1.93223e-006 
